<?xml version="1.0" encoding="UTF-8" standalone="no"?>
<svg width="32px" height="32px" viewBox="0 0 32 32" version="1.1" xmlns="http://www.w3.org/2000/svg" xmlns:xlink="http://www.w3.org/1999/xlink">
    <!-- Generator: Sketch 39.1 (31720) - http://www.bohemiancoding.com/sketch -->
    <title>icon-link</title>
    <desc>Created with Sketch.</desc>
    <defs></defs>
    <g id="Welcome" stroke="none" stroke-width="1" fill="none" fill-rule="evenodd">
        <g id="Desktop" transform="translate(-486.000000, -1827.000000)" fill="#474747">
            <g id="Infos" transform="translate(0.000000, 1275.000000)">
                <g id="Group-7" transform="translate(186.000000, 104.000000)">
                    <g id="Group-6-Copy-2" transform="translate(291.598425, 440.000000)">
                        <g id="icon-link" transform="translate(8.000000, 8.000000)">
                            <path d="M25.088,17.9550189 L25.5921509,18.4597736 C27.5586415,20.4256604 27.5586415,23.6256604 25.5921509,25.5921509 C23.9649811,27.2193208 21.4943396,27.4952453 19.5755472,26.4295849 C19.418566,26.3420377 19.2658113,26.2442264 19.1166792,26.1397736 C19.0520755,26.0938868 18.9874717,26.048 18.9246792,25.9996981 C18.8787925,25.9628679 18.8329057,25.9266415 18.7876226,25.8892075 C18.6753208,25.7956226 18.5648302,25.6984151 18.4597736,25.5927547 L17.9550189,25.0886038 L14.0323019,21.1658868 C12.9907925,20.1243774 12.5071698,18.7381132 12.570566,17.3723774 C12.5723774,17.3216604 12.5723774,17.2715472 12.5766038,17.221434 C12.5856604,17.101283 12.6013585,16.9811321 12.6188679,16.8603774 C12.6236981,16.8259623 12.6273208,16.7921509 12.6327547,16.7583396 C12.6550943,16.626717 12.6834717,16.4950943 12.7166792,16.365283 C12.7221132,16.3441509 12.7263396,16.3230189 12.7311698,16.3024906 C12.7686038,16.1630189 12.8120755,16.0247547 12.8615849,15.8876981 C12.8652075,15.8768302 12.8682264,15.866566 12.8724528,15.8556981 C12.9249811,15.7126038 12.9847547,15.5713208 13.050566,15.4330566 C13.0523774,15.4288302 13.0608302,15.4318491 13.0632453,15.4282264 C13.1320755,15.2857358 13.1870189,15.1251321 13.2963019,15.0152453 L13.2969057,15.0146415 C13.5178868,14.7936604 13.6513208,14.4688302 13.874717,14.2230943 C13.9302642,14.1621132 13.9773585,14.0950943 14.0365283,14.0365283 C14.5153208,13.5577358 15.0683774,13.1978868 15.6576604,12.9521509 L12.3242264,9.61871698 C11.7983396,9.96709434 11.2984151,10.3722264 10.8353208,10.8353208 C10.72,10.9506415 10.6083019,11.0683774 10.5002264,11.1873208 C10.4416604,11.2519245 10.386717,11.3189434 10.330566,11.3847547 C10.2828679,11.4403019 10.2339623,11.4940377 10.1886792,11.5501887 C10.1132075,11.6419623 10.042566,11.7355472 9.97132075,11.8297358 C9.94716981,11.8611321 9.92181132,11.8919245 9.89886792,11.9233208 C9.81796226,12.0326038 9.74128302,12.1436981 9.66581132,12.2547925 C9.65433962,12.2723019 9.64166038,12.2892075 9.63018868,12.306717 C9.54867925,12.429283 9.47018868,12.5536604 9.39471698,12.6792453 C9.39109434,12.6858868 9.53237736,12.6919245 9.52875472,12.698566 C9.29086792,13.0958491 9.05660377,13.5070189 9.05660377,13.9278491 L9.05660377,13.9290566 C7.24528302,17.3977358 8.16060377,21.5408302 10.981434,24.3616604 L11.7289057,25.1821887 L15.2990189,28.7885283 C15.4517736,28.9418868 15.5918491,29.0855849 15.7518491,29.2268679 C15.7838491,29.2552453 15.8073962,29.2830189 15.84,29.3101887 C19.5978868,32.5132075 25.242566,32.3411321 28.7939623,28.7891321 C32.5301132,25.0541887 32.5276981,18.9977358 28.7915472,15.2627925 L25.184,11.6558491 C25.7648302,13.7153208 25.7316226,15.9112453 25.088,17.9550189 L25.088,17.9550189 Z" id="Shape"></path>
                            <path d="M6.912,14.0449811 L6.40784906,13.5408302 C4.44135849,11.5743396 4.44135849,8.3749434 6.40784906,6.40845283 C8.03562264,4.78067925 10.5056604,4.50475472 12.4244528,5.57101887 C12.581434,5.65856604 12.7341887,5.75698113 12.8833208,5.86143396 C12.9479245,5.90732075 13.0119245,5.95320755 13.074717,6.00211321 C13.1212075,6.03773585 13.1670943,6.07396226 13.2123774,6.11139623 C13.3246792,6.20558491 13.4351698,6.30218868 13.5402264,6.40784906 L14.0443774,6.912 L17.9670943,10.8353208 C19.0086038,11.8768302 19.4922264,13.2630943 19.4288302,14.6288302 C19.4270189,14.6789434 19.4270189,14.7296604 19.4227925,14.7797736 C19.4137358,14.9005283 19.3980377,15.0206792 19.3805283,15.1408302 C19.3756981,15.1752453 19.3720755,15.2090566 19.3666415,15.2428679 C19.3443019,15.3744906 19.3159245,15.5061132 19.282717,15.6359245 C19.277283,15.6570566 19.2730566,15.6781887 19.2688302,15.698717 C19.2307925,15.8381887 19.1873208,15.9764528 19.1378113,16.1135094 C19.1341887,16.1243774 19.130566,16.1346415 19.1269434,16.1455094 C19.0738113,16.2886038 19.0146415,16.4298868 18.9488302,16.5681509 C18.9470189,16.5723774 18.9379623,16.5295094 18.9361509,16.5331321 C18.8679245,16.6750189 18.8135849,16.9056604 18.7043019,16.9056604 L18.7030943,16.9056604 C18.482717,17.509434 18.349283,17.4919245 18.1258868,17.7376604 C18.0703396,17.7986415 18.0226415,17.8855849 17.9640755,17.9441509 C17.485283,18.4235472 16.9322264,18.7924528 16.3429434,19.0387925 L19.6757736,22.3764528 C20.2016604,22.0286792 20.7015849,21.626566 21.165283,21.1628679 C21.28,21.0475472 21.3916981,20.9304151 21.5003774,20.8114717 C21.5595472,20.7468679 21.6138868,20.6798491 21.6700377,20.6146415 C21.7171321,20.5590943 21.7666415,20.5053585 21.8119245,20.4492075 C21.8867925,20.357434 21.9580377,20.2644528 22.029283,20.1702642 C22.0528302,20.1394717 22.0787925,20.1086792 22.1011321,20.077283 C22.1826415,19.968 22.2593208,19.8569057 22.3347925,19.7458113 C22.3462642,19.7283019 22.3583396,19.7113962 22.3704151,19.6938868 C22.4519245,19.5713208 22.5304151,19.4463396 22.6058868,19.3213585 C22.6101132,19.3141132 22.4682264,19.3086792 22.4718491,19.3020377 C22.7091321,18.9041509 22.9433962,18.4929811 22.9433962,18.0721509 L22.9433962,18.0709434 C24.754717,14.6022642 23.8393962,10.458566 21.018566,7.63773585 L20.2710943,6.81720755 L16.7009811,3.21086792 C16.5482264,3.05811321 16.4081509,2.91381132 16.2481509,2.77313208 C16.2161509,2.74475472 16.1926038,2.71698113 16.16,2.68920755 C12.4021132,-0.513207547 6.75803774,-0.341132075 3.20664151,3.21086792 C-0.52890566,6.94641509 -0.52709434,13.0022642 3.20845283,16.7378113 L6.816,20.3447547 C6.23516981,18.2846792 6.26837736,16.0887547 6.912,14.0449811 L6.912,14.0449811 Z" id="Shape"></path>
                        </g>
                    </g>
                </g>
            </g>
        </g>
    </g>
</svg>