<?xml version="1.0" encoding="UTF-8" standalone="no"?>
<svg width="20px" height="19px" viewBox="0 0 20 19" version="1.1" xmlns="http://www.w3.org/2000/svg" xmlns:xlink="http://www.w3.org/1999/xlink">
    <!-- Generator: Sketch 39.1 (31720) - http://www.bohemiancoding.com/sketch -->
    <title>icon-ticket</title>
    <desc>Created with Sketch.</desc>
    <defs></defs>
    <g id="Welcome" stroke="none" stroke-width="1" fill="none" fill-rule="evenodd">
        <g id="Desktop" transform="translate(-611.000000, -1853.000000)" fill="#FFFFFF">
            <g id="Infos" transform="translate(0.000000, 1275.000000)">
                <g id="Group-7" transform="translate(186.000000, 104.000000)">
                    <path d="M427.697873,477.52554 L441.53772,477.52554 C441.975226,478.560715 442.87528,479.460768 443.910454,479.898274 L443.910454,487.100509 C442.87528,487.538015 441.975226,488.438068 441.53772,489.473243 L427.697873,489.473243 C427.260367,488.438068 426.360314,487.538015 425.32514,487.100509 L425.32514,479.898274 C426.360314,479.460768 427.260367,478.560715 427.697873,477.52554 L427.697873,477.52554 L427.697873,477.52554 Z M429.307707,480.180585 L429.307707,486.818198 L439.927887,486.818198 L439.927887,480.180585 L429.307707,480.180585 L429.307707,480.180585 L429.307707,480.180585 Z M430.635229,481.508108 L430.635229,485.490675 L438.600364,485.490675 L438.600364,481.508108 L430.635229,481.508108 L430.635229,481.508108 L430.635229,481.508108 Z" id="icon-ticket" transform="translate(434.617797, 483.499391) rotate(40.000000) translate(-434.617797, -483.499391) "></path>
                </g>
            </g>
        </g>
    </g>
</svg>